<svg id="visual" viewBox="0 0 900 600" width="900" height="600" xmlns="http://www.w3.org/2000/svg" xmlns:xlink="http://www.w3.org/1999/xlink" version="1.1"><rect x="0" y="0" width="900" height="600" fill="#001220"></rect><defs><linearGradient id="grad1_0" x1="33.3%" y1="100%" x2="100%" y2="0%"><stop offset="20%" stop-color="#001220" stop-opacity="1"></stop><stop offset="80%" stop-color="#001220" stop-opacity="1"></stop></linearGradient></defs><defs><linearGradient id="grad2_0" x1="0%" y1="100%" x2="66.7%" y2="0%"><stop offset="20%" stop-color="#001220" stop-opacity="1"></stop><stop offset="80%" stop-color="#001220" stop-opacity="1"></stop></linearGradient></defs><g transform="translate(900, 600)"><path d="M-405.6 0C-395.4 -71.7 -385.3 -143.4 -351.3 -202.8C-317.3 -262.3 -259.5 -309.5 -197 -341.2C-134.5 -373 -67.2 -389.3 0 -405.6L0 0Z" fill="#FF3C00"></path></g><g transform="translate(0, 0)"><path d="M405.6 0C374.5 58.7 343.4 117.4 313.5 181C283.6 244.6 254.9 313 202.8 351.3C150.8 389.5 75.4 397.6 0 405.6L0 0Z" fill="#FF3C00"></path></g></svg>