<svg id="visual" viewBox="0 0 900 600" width="900" height="600" xmlns="http://www.w3.org/2000/svg" xmlns:xlink="http://www.w3.org/1999/xlink" version="1.1"><rect x="0" y="0" width="900" height="600" fill="#140021"></rect><path d="M312 0L428 0L428 26L389 26L389 52L385 52L385 78L296 78L296 104L334 104L334 130L419 130L419 157L415 157L415 183L392 183L392 209L428 209L428 235L334 235L334 261L340 261L340 287L304 287L304 313L384 313L384 339L310 339L310 365L390 365L390 391L336 391L336 417L375 417L375 443L378 443L378 470L307 470L307 496L309 496L309 522L330 522L330 548L341 548L341 574L339 574L339 600L0 600L0 574L0 574L0 548L0 548L0 522L0 522L0 496L0 496L0 470L0 470L0 443L0 443L0 417L0 417L0 391L0 391L0 365L0 365L0 339L0 339L0 313L0 313L0 287L0 287L0 261L0 261L0 235L0 235L0 209L0 209L0 183L0 183L0 157L0 157L0 130L0 130L0 104L0 104L0 78L0 78L0 52L0 52L0 26L0 26L0 0L0 0Z" fill="#ff3c00"></path><path d="M201 0L242 0L242 26L285 26L285 52L226 52L226 78L209 78L209 104L288 104L288 130L222 130L222 157L272 157L272 183L286 183L286 209L262 209L262 235L245 235L245 261L251 261L251 287L199 287L199 313L277 313L277 339L207 339L207 365L201 365L201 391L216 391L216 417L275 417L275 443L298 443L298 470L286 470L286 496L309 496L309 522L312 522L312 548L296 548L296 574L305 574L305 600L0 600L0 574L0 574L0 548L0 548L0 522L0 522L0 496L0 496L0 470L0 470L0 443L0 443L0 417L0 417L0 391L0 391L0 365L0 365L0 339L0 339L0 313L0 313L0 287L0 287L0 261L0 261L0 235L0 235L0 209L0 209L0 183L0 183L0 157L0 157L0 130L0 130L0 104L0 104L0 78L0 78L0 52L0 52L0 26L0 26L0 0L0 0Z" fill="#c12d01"></path><path d="M160 0L180 0L180 26L97 26L97 52L100 52L100 78L182 78L182 104L96 104L96 130L100 130L100 157L156 157L156 183L148 183L148 209L185 209L185 235L113 235L113 261L110 261L110 287L159 287L159 313L109 313L109 339L105 339L105 365L85 365L85 391L113 391L113 417L129 417L129 443L190 443L190 470L91 470L91 496L126 496L126 522L140 522L140 548L93 548L93 574L138 574L138 600L0 600L0 574L0 574L0 548L0 548L0 522L0 522L0 496L0 496L0 470L0 470L0 443L0 443L0 417L0 417L0 391L0 391L0 365L0 365L0 339L0 339L0 313L0 313L0 287L0 287L0 261L0 261L0 235L0 235L0 209L0 209L0 183L0 183L0 157L0 157L0 130L0 130L0 104L0 104L0 78L0 78L0 52L0 52L0 26L0 26L0 0L0 0Z" fill="#861f00"></path></svg>