<?xml version="1.0" standalone="no"?>
<svg width="800" height="800" title="polygons" version="1.1" viewBox="0 0 800 800" xmlns="http://www.w3.org/2000/svg" class="svg-paper"><!----> <g><desc>pwidth:800;pheight:800;pcolor:;seed:10};sf:i+i*7;rf:10*sin(i/2);xf:400;yf:400;qt:100;sd:5;rn:-2;minrd:220;maxrd:50;mina:145;maxa:224;cv:curveStep;rd:false</desc> <path stroke="#FF3C00" stroke-width="0.4mm" fill="none" d="M526.19,219.79L444.37,219.79L444.37,183.21L291.61,183.21L291.61,272.56L201.81,272.56L201.81,435.93L227.13,435.93L227.13,578.43L271.31,578.43"/><path stroke="#FF3C00" stroke-width="0.4mm" fill="none" d="M514.71,202.96L428.63,202.96L428.63,179.36L273.16,179.36L273.16,283.92L191.36,283.92L191.36,455.91L230.76,455.91L230.76,595.42L282.55,595.42"/><path stroke="#FF3C00" stroke-width="0.4mm" fill="none" d="M505.62,188.95L415.92,188.95L415.92,175.83L257.96,175.83L257.96,292.91L182.51,292.91L182.51,472.20L233.38,472.20L233.38,609.55L291.45,609.55"/><path stroke="#FF3C00" stroke-width="0.4mm" fill="none" d="M503.22,178.91L410.33,178.91L410.33,170.39L248.54,170.39L248.54,295.24L174.73,295.24L174.73,480.95L231.76,480.95L231.76,619.63L293.71,619.63"/><path stroke="#FF3C00" stroke-width="0.4mm" fill="none" d="M510.10,173.32L414.25,173.32L414.25,161.58L246.25,161.58L246.25,288.32L167.56,288.32L167.56,479.93L223.88,479.93L223.88,625.12L286.74,625.12"/><path stroke="#FF3C00" stroke-width="0.4mm" fill="none" d="M526.11,172.63L427.69,172.63L427.69,149.80L251.40,149.80L251.40,272.30L161.42,272.30L161.42,468.98L210.02,468.98L210.02,625.58L270.73,625.58"/><path stroke="#FF3C00" stroke-width="0.4mm" fill="none" d="M548.27,176.75L448.08,176.75L448.08,137.11L262.84,137.11L262.84,250.18L157.27,250.18L157.27,450.27L192.69,450.27L192.69,621.16L248.63,621.16"/><path stroke="#FF3C00" stroke-width="0.4mm" fill="none" d="M571.84,184.02L470.80,184.02L470.80,125.66L277.49,125.66L277.49,226.65L155.34,226.65L155.34,428.33L175.31,428.33L175.31,613.56L225.16,613.56"/><path stroke="#FF3C00" stroke-width="0.4mm" fill="none" d="M592.12,190.84L490.53,190.84L490.53,116.22L290.56,116.22L290.56,206.43L154.17,206.43L154.17,409.08L160.56,409.08L160.56,606.46L204.98,606.46"/><path stroke="#FF3C00" stroke-width="0.4mm" fill="none" d="M605.66,192.72L502.77,192.72L502.77,108.00L297.02,108.00L297.02,192.89L151.08,192.89L151.08,398.09L149.73,398.09L149.73,604.39L191.46,604.39"/><path stroke="#FF3C00" stroke-width="0.4mm" fill="none" d="M610.61,186.35L504.75,186.35L504.75,100.00L293.36,100.00L293.36,187.91L143.91,187.91L143.91,399.01L143.22,399.01L143.22,610.69L186.43,610.69"/><path stroke="#FF3C00" stroke-width="0.4mm" fill="none" d="M606.31,171.31L495.78,171.31L495.78,92.35L279.00,92.35L279.00,192.10L132.51,192.10L132.51,412.60L141.39,412.60L141.39,625.79L190.51,625.79"/><path stroke="#FF3C00" stroke-width="0.4mm" fill="none" d="M593.65,150.29L477.56,150.29L477.56,86.36L256.55,86.36L256.55,204.61L118.87,204.61L118.87,436.35L144.49,436.35L144.49,646.98L202.88,646.98"/><path stroke="#FF3C00" stroke-width="0.4mm" fill="none" d="M575.75,127.81L454.33,127.81L454.33,83.02L230.97,83.02L230.97,222.36L105.80,222.36L105.80,464.88L151.52,464.88L151.52,669.71L220.47,669.71"/><path stroke="#FF3C00" stroke-width="0.4mm" fill="none" d="M558.06,108.04L432.25,108.04L432.25,81.46L207.79,81.46L207.79,239.90L94.98,239.90L94.98,491.34L159.35,491.34L159.35,689.72L237.88,689.72"/><path stroke="#FF3C00" stroke-width="0.4mm" fill="none" d="M547.02,93.43L417.66,93.43L417.66,78.87L191.38,78.87L191.38,250.85L86.28,250.85L86.28,509.46L163.41,509.46L163.41,704.49L248.72,704.49"/><path stroke="#FF3C00" stroke-width="0.4mm" fill="none" d="M547.66,84.88L415.19,84.88L415.19,72.36L184.32,72.36L184.32,250.15L78.73,250.15L78.73,514.98L159.75,514.98L159.75,713.03L247.96,713.03"/><path stroke="#FF3C00" stroke-width="0.4mm" fill="none" d="M561.70,82.84L426.48,82.84L426.48,61.01L187.62,61.01L187.62,236.09L72.12,236.09L72.12,506.37L147.07,506.37L147.07,714.87L233.88,714.87"/><path stroke="#FF3C00" stroke-width="0.4mm" fill="none" d="M586.81,87.60L449.62,87.60L449.62,46.69L200.67,46.69L200.67,211.01L67.50,211.01L67.50,485.10L127.47,485.10L127.47,709.77L208.84,709.77"/><path stroke="#FF3C00" stroke-width="0.4mm" fill="none" d="M617.35,98.10L479.42,98.10L479.42,32.63L220.56,32.63L220.56,180.55L65.93,180.55L65.93,455.94L105.34,455.94L105.34,698.84L178.46,698.84"/><path stroke="#FF3C00" stroke-width="0.4mm" fill="none" d="M646.49,110.79L508.80,110.79L508.80,21.10L241.81,21.10L241.81,151.50L66.71,151.50L66.71,426.24L85.20,426.24L85.20,685.74L149.50,685.74"/><path stroke="#FF3C00" stroke-width="0.4mm" fill="none" d="M668.54,119.94L530.87,119.94L530.87,12.06L257.52,12.06L257.52,129.51L66.92,129.51L66.92,404.08L69.80,404.08L69.80,676.28L127.58,676.28"/><path stroke="#FF3C00" stroke-width="0.4mm" fill="none" d="M680.01,119.99L540.70,119.99L540.70,4.00L261.66,4.00L261.66,118.04L62.98,118.04L62.98,395.85L60.06,395.85L60.06,676.08L116.10,676.08"/><path stroke="#FF3C00" stroke-width="0.4mm" fill="none" d="M679.39,108.19L536.01,108.19L536.01,-3.93L251.39,-3.93L251.39,118.58L53.09,118.58L53.09,404.55L56.29,404.55L56.29,687.88L116.56,687.88"/><path stroke="#FF3C00" stroke-width="0.4mm" fill="none" d="M666.84,86.09L517.49,86.09L517.49,-10.77L228.05,-10.77L228.05,130.98L38.49,130.98L38.49,428.99L58.91,428.99L58.91,710.16L128.81,710.16"/><path stroke="#FF3C00" stroke-width="0.4mm" fill="none" d="M644.87,58.77L489.09,58.77L489.09,-14.67L196.90,-14.67L196.90,152.76L22.68,152.76L22.68,463.80L67.63,463.80L67.63,737.78L150.39,737.78"/><path stroke="#FF3C00" stroke-width="0.4mm" fill="none" d="M619.14,32.36L457.79,32.36L457.79,-15.28L165.17,-15.28L165.17,178.30L8.95,178.30L8.95,500.65L79.87,500.65L79.87,764.55L175.74,764.55"/><path stroke="#FF3C00" stroke-width="0.4mm" fill="none" d="M597.68,11.39L432.06,11.39L432.06,-15.04L139.61,-15.04L139.61,199.61L-1.59,199.61L-1.59,530.66L90.47,530.66L90.47,785.81L196.91,785.81"/><path stroke="#FF3C00" stroke-width="0.4mm" fill="none" d="M588.30,-2.09L419.29,-2.09L419.29,-18.00L124.76,-18.00L124.76,208.90L-9.90,208.90L-9.90,546.79L93.54,546.79L93.54,799.42L206.10,799.42"/><path stroke="#FF3C00" stroke-width="0.4mm" fill="none" d="M595.67,-7.45L423.70,-7.45L423.70,-26.99L122.83,-26.99L122.83,201.49L-17.05,201.49L-17.05,545.28L85.32,545.28L85.32,804.68L198.66,804.68"/><path stroke="#FF3C00" stroke-width="0.4mm" fill="none" d="M619.47,-4.27L445.17,-4.27L445.17,-41.50L134.07,-41.50L134.07,177.71L-22.56,177.71L-22.56,526.04L66.25,526.04L66.25,801.16L174.90,801.16"/><path stroke="#FF3C00" stroke-width="0.4mm" fill="none" d="M654.45,7.21L479.11,7.21L479.11,-58.00L156.39,-58.00L156.39,142.82L-24.83,142.82L-24.83,493.02L40.72,493.02L40.72,789.19L140.09,789.19"/><path stroke="#FF3C00" stroke-width="0.4mm" fill="none" d="M692.26,24.29L517.45,24.29L517.45,-72.53L184.49,-72.53L184.49,105.12L-23.29,105.12L-23.29,454.06L14.80,454.06L14.80,771.59L102.52,771.59"/><path stroke="#FF3C00" stroke-width="0.4mm" fill="none" d="M724.60,40.98L550.97,40.98L550.97,-83.47L210.31,-83.47L210.31,72.90L-20.18,72.90L-20.18,419.27L-6.60,419.27L-6.60,754.45L70.42,754.45"/><path stroke="#FF3C00" stroke-width="0.4mm" fill="none" d="M745.54,49.77L571.97,49.77L571.97,-92.00L225.30,-92.00L225.30,52.02L-19.90,52.02L-19.90,398.16L-21.20,398.16L-21.20,745.37L49.60,745.37"/><path stroke="#FF3C00" stroke-width="0.4mm" fill="none" d="M752.05,44.95L575.83,44.95L575.83,-100.00L223.52,-100.00L223.52,45.48L-26.29,45.48L-26.29,396.89L-28.48,396.89L-28.48,750.10L43.03,750.10"/><path stroke="#FF3C00" stroke-width="0.4mm" fill="none" d="M743.26,25.52L561.48,25.52L561.48,-107.59L203.81,-107.59L203.81,54.13L-39.90,54.13L-39.90,416.76L-28.09,416.76L-28.09,769.65L51.54,769.65"/><path stroke="#FF3C00" stroke-width="0.4mm" fill="none" d="M720.69,-4.25L531.70,-4.25L531.70,-112.81L170.35,-112.81L170.35,76.50L-57.60,76.50L-57.60,453.71L-19.75,453.71L-19.75,799.73L73.70,799.73"/><path stroke="#FF3C00" stroke-width="0.4mm" fill="none" d="M689.22,-36.95L493.28,-36.95L493.28,-113.84L131.21,-113.84L131.21,107.73L-74.73,107.73L-74.73,499.07L-4.92,499.07L-4.92,832.87L104.70,832.87"/><path stroke="#FF3C00" stroke-width="0.4mm" fill="none" d="M657.47,-65.55L456.06,-65.55L456.06,-111.76L95.46,-111.76L95.46,139.29L-88.25,139.29L-88.25,541.77L11.65,541.77L11.65,861.91L136.06,861.91"/><path stroke="#FF3C00" stroke-width="0.4mm" fill="none" d="M635.62,-85.88L430.22,-85.88L430.22,-110.80L70.30,-110.80L70.30,160.99L-98.12,160.99L-98.12,571.61L22.80,571.61L22.80,882.55L157.62,882.55"/><path stroke="#FF3C00" stroke-width="0.4mm" fill="none" d="M631.87,-96.53L423.26,-96.53L423.26,-115.71L59.88,-115.71L59.88,164.67L-105.94,164.67L-105.94,581.74L22.12,581.74L22.12,893.24L161.22,893.24"/><path stroke="#FF3C00" stroke-width="0.4mm" fill="none" d="M649.24,-97.00L437.95,-97.00L437.95,-128.29L65.70,-128.29L65.70,147.29L-112.37,147.29L-112.37,569.66L7.18,569.66L7.18,893.48L143.84,893.48"/><path stroke="#FF3C00" stroke-width="0.4mm" fill="none" d="M684.41,-87.04L471.52,-87.04L471.52,-145.99L86.80,-145.99L86.80,112.19L-116.00,112.19L-116.00,537.56L-19.08,537.56L-19.08,883.02L108.81,883.02"/><path stroke="#FF3C00" stroke-width="0.4mm" fill="none" d="M728.81,-68.05L516.16,-68.05L516.16,-163.80L118.89,-163.80L118.89,67.93L-115.10,67.93L-115.10,492.55L-49.89,492.55L-49.89,863.41L64.69,863.41"/><path stroke="#FF3C00" stroke-width="0.4mm" fill="none" d="M771.82,-45.14L561.00,-45.14L561.00,-177.86L153.82,-177.86L153.82,25.08L-110.36,25.08L-110.36,445.79L-78.09,445.79L-78.09,839.90L22.00,839.90"/><path stroke="#FF3C00" stroke-width="0.4mm" fill="none" d="M804.47,-26.79L595.37,-26.79L595.37,-187.84L181.16,-187.84L181.16,-7.44L-105.94,-7.44L-105.94,409.62L-99.16,409.62L-99.16,821.10L-10.39,821.10"/><path stroke="#FF3C00" stroke-width="0.4mm" fill="none" d="M821.29,-21.58L611.59,-21.58L611.59,-196.00L191.63,-196.00L191.63,-24.23L-107.30,-24.23L-107.30,393.96L-111.55,393.96L-111.55,815.65L-27.14,815.65"/><path stroke="#FF3C00" stroke-width="0.4mm" fill="none" d="M820.00,-34.07L606.08,-34.07L606.08,-203.95L180.51,-203.95L180.51,-23.02L-117.56,-23.02L-117.56,403.63L-115.00,403.63L-115.00,828.17L-26.02,828.17"/><path stroke="#FF3C00" stroke-width="0.4mm" fill="none" d="M800.81,-62.49L579.67,-62.49L579.67,-210.59L149.42,-210.59L149.42,-4.03L-135.27,-4.03L-135.27,437.22L-109.05,437.22L-109.05,856.85L-7.23,856.85"/><path stroke="#FF3C00" stroke-width="0.4mm" fill="none" d="M767.25,-99.52L537.93,-99.52L537.93,-213.23L105.83,-213.23L105.83,29.27L-155.40,29.27L-155.40,487.11L-94.02,487.11L-94.02,894.35L25.81,894.35"/><path stroke="#FF3C00" stroke-width="0.4mm" fill="none" d="M727.28,-135.98L490.92,-135.98L490.92,-210.93L60.44,-210.93L60.44,68.98L-172.80,68.98L-172.80,541.17L-73.33,541.17L-73.33,931.35L65.27,931.35"/><path stroke="#FF3C00" stroke-width="0.4mm" fill="none" d="M692.43,-164.78L450.99,-164.78L450.99,-206.81L23.41,-206.81L23.41,103.63L-185.43,103.63L-185.43,586.22L-54.21,586.22L-54.21,960.64L99.71,960.64"/><path stroke="#FF3C00" stroke-width="0.4mm" fill="none" d="M674.27,-182.68L429.15,-182.68L429.15,-206.71L1.64,-206.71L1.64,121.67L-194.48,121.67L-194.48,611.72L-45.29,611.72L-45.29,978.79L117.62,978.79"/><path stroke="#FF3C00" stroke-width="0.4mm" fill="none" d="M680.04,-188.80L431.93,-188.80L431.93,-215.12L-1.50,-215.12L-1.50,115.86L-201.72,115.86L-201.72,611.88L-52.42,611.88L-52.42,984.83L111.77,984.83"/><path stroke="#FF3C00" stroke-width="0.4mm" fill="none" d="M709.93,-182.70L459.63,-182.70L459.63,-231.86L14.40,-231.86L14.40,86.01L-206.85,86.01L-206.85,586.26L-75.60,586.26L-75.60,978.32L81.97,978.32"/><path stroke="#FF3C00" stroke-width="0.4mm" fill="none" d="M756.86,-164.69L506.09,-164.69L506.09,-252.14L46.56,-252.14L46.56,39.21L-207.66,39.21L-207.66,540.13L-108.92,540.13L-108.92,959.65L35.29,959.65"/><path stroke="#FF3C00" stroke-width="0.4mm" fill="none" d="M809.06,-138.19L560.05,-138.19L560.05,-270.12L87.86,-270.12L87.86,-12.81L-203.02,-12.81L-203.02,484.29L-143.63,484.29L-143.63,932.42L-16.54,932.42"/><path stroke="#FF3C00" stroke-width="0.4mm" fill="none" d="M854.45,-111.21L608.35,-111.21L608.35,-282.96L127.12,-282.96L127.12,-58.01L-195.61,-58.01L-195.61,432.98L-172.37,432.98L-172.37,904.81L-61.54,904.81"/><path stroke="#FF3C00" stroke-width="0.4mm" fill="none" d="M884.26,-94.33L639.77,-94.33L639.77,-291.98L152.18,-291.98L152.18,-87.70L-191.47,-87.70L-191.47,399.88L-191.56,399.88L-191.56,887.52L-91.11,887.52"/><path stroke="#FF3C00" stroke-width="0.4mm" fill="none" d="M893.94,-96.01L647.46,-96.01L647.46,-300.00L154.22,-300.00L154.22,-97.39L-196.26,-97.39L-196.26,394.13L-200.40,394.13L-200.40,889.06L-100.82,889.06"/><path stroke="#FF3C00" stroke-width="0.4mm" fill="none" d="M882.23,-118.38L629.57,-118.38L629.57,-307.62L130.96,-307.62L130.96,-85.84L-211.38,-85.84L-211.38,418.15L-198.60,418.15L-198.60,911.59L-89.42,911.59"/><path stroke="#FF3C00" stroke-width="0.4mm" fill="none" d="M850.99,-156.12L589.57,-156.12L589.57,-312.39L87.59,-312.39L87.59,-54.86L-232.91,-54.86L-232.91,466.88L-185.79,466.88L-185.79,949.77L-58.71,949.77"/><path stroke="#FF3C00" stroke-width="0.4mm" fill="none" d="M806.53,-199.09L536.43,-199.09L536.43,-311.55L35.04,-311.55L35.04,-10.71L-254.35,-10.71L-254.35,528.70L-163.66,528.70L-163.66,993.35L-14.86,993.35"/><path stroke="#FF3C00" stroke-width="0.4mm" fill="none" d="M760.30,-237.19L483.48,-237.19L483.48,-306.01L-14.00,-306.01L-14.00,35.26L-271.00,35.26L-271.00,588.40L-138.25,588.40L-138.25,1032.10L30.84,1032.10"/><path stroke="#FF3C00" stroke-width="0.4mm" fill="none" d="M726.27,-264.19L444.88,-264.19L444.88,-301.19L-49.20,-301.19L-49.20,69.11L-282.36,69.11L-282.36,631.60L-119.17,631.60L-119.17,1059.57L64.49,1059.57"/><path stroke="#FF3C00" stroke-width="0.4mm" fill="none" d="M716.13,-277.91L431.38,-277.91L431.38,-303.78L-64.53,-303.78L-64.53,79.15L-290.61,79.15L-290.61,648.45L-115.55,648.45L-115.55,1073.43L74.44,1073.43"/><path stroke="#FF3C00" stroke-width="0.4mm" fill="none" d="M734.83,-277.81L447.40,-277.81L447.40,-316.88L-57.74,-316.88L-57.74,60.45L-297.00,60.45L-297.00,635.01L-131.40,635.01L-131.40,1073.07L55.74,1073.07"/><path stroke="#FF3C00" stroke-width="0.4mm" fill="none" d="M778.64,-263.57L489.86,-263.57L489.86,-337.65L-29.91,-337.65L-29.91,16.74L-299.97,16.74L-299.97,593.75L-163.44,593.75L-163.44,1058.22L12.14,1058.22"/><path stroke="#FF3C00" stroke-width="0.4mm" fill="none" d="M836.43,-236.80L548.70,-236.80L548.70,-359.38L13.62,-359.38L13.62,-40.87L-297.03,-40.87L-297.03,533.72L-202.81,533.72L-202.81,1030.64L-45.28,1030.64"/><path stroke="#FF3C00" stroke-width="0.4mm" fill="none" d="M893.85,-203.75L609.42,-203.75L609.42,-376.39L62.35,-376.39L62.35,-98.05L-288.59,-98.05L-288.59,469.58L-239.56,469.58L-239.56,996.80L-102.23,996.80"/><path stroke="#FF3C00" stroke-width="0.4mm" fill="none" d="M938.32,-175.46L657.40,-175.46L657.40,-387.65L102.40,-387.65L102.40,-142.33L-279.74,-142.33L-279.74,418.01L-267.05,418.01L-267.05,967.89L-146.30,967.89"/><path stroke="#FF3C00" stroke-width="0.4mm" fill="none" d="M962.05,-163.66L681.84,-163.66L681.84,-396.00L120.95,-396.00L120.95,-165.97L-277.85,-165.97L-277.85,392.81L-282.92,392.81L-282.92,955.76L-169.86,955.76"/><path stroke="#FF3C00" stroke-width="0.4mm" fill="none" d="M961.70,-175.25L677.46,-175.25L677.46,-403.97L110.96,-403.97L110.96,-165.70L-287.66,-165.70L-287.66,401.16L-286.84,401.16L-286.84,967.35L-169.68,967.35"/><path stroke="#FF3C00" stroke-width="0.4mm" fill="none" d="M937.36,-208.76L644.85,-208.76L644.85,-410.60L73.68,-410.60L73.68,-141.60L-307.95,-141.60L-307.95,442.00L-278.36,442.00L-278.36,1001.20L-145.81,1001.20"/><path stroke="#FF3C00" stroke-width="0.4mm" fill="none" d="M893.24,-255.07L590.82,-255.07L590.82,-412.37L18.39,-412.37L18.39,-97.80L-332.37,-97.80L-332.37,505.92L-257.73,505.92L-257.73,1048.12L-102.33,1048.12"/><path stroke="#FF3C00" stroke-width="0.4mm" fill="none" d="M839.22,-301.91L528.14,-301.91L528.14,-407.54L-40.88,-407.54L-40.88,-44.11L-353.81,-44.11L-353.81,577.29L-228.89,577.29L-228.89,1095.70L-48.98,1095.70"/><path stroke="#FF3C00" stroke-width="0.4mm" fill="none" d="M790.16,-339.37L473.01,-339.37L473.01,-399.56L-90.39,-399.56L-90.39,4.69L-368.94,4.69L-368.94,638.55L-200.84,638.55L-200.84,1133.85L-0.45,1133.85"/><path stroke="#FF3C00" stroke-width="0.4mm" fill="none" d="M761.52,-362.65L440.32,-362.65L440.32,-395.89L-120.49,-395.89L-120.49,33.17L-378.97,33.17L-378.97,675.31L-184.98,675.31L-184.98,1157.53L27.87,1157.53"/><path stroke="#FF3C00" stroke-width="0.4mm" fill="none" d="M763.62,-370.51L439.35,-370.51L439.35,-402.95L-126.43,-402.95L-126.43,31.01L-386.44,31.01L-386.44,679.30L-189.63,679.30L-189.63,1165.36L25.66,1165.36"/><path stroke="#FF3C00" stroke-width="0.4mm" fill="none" d="M797.75,-362.49L471.36,-362.49L471.36,-421.31L-107.37,-421.31L-107.37,-3.07L-391.38,-3.07L-391.38,649.30L-215.72,649.30L-215.72,1156.86L-8.36,1156.86"/><path stroke="#FF3C00" stroke-width="0.4mm" fill="none" d="M855.57,-338.83L529.11,-338.83L529.11,-445.27L-66.49,-445.27L-66.49,-60.72L-391.13,-60.72L-391.13,591.44L-256.24,591.44L-256.24,1132.40L-65.85,1132.40"/><path stroke="#FF3C00" stroke-width="0.4mm" fill="none" d="M922.12,-303.39L598.49,-303.39L598.49,-467.01L-12.44,-467.01L-12.44,-127.02L-383.80,-127.02L-383.80,519.10L-299.88,519.10L-299.88,1096.04L-131.89,1096.04"/><path stroke="#FF3C00" stroke-width="0.4mm" fill="none" d="M981.42,-265.89L662.38,-265.89L662.38,-482.18L40.77,-482.18L40.77,-186.05L-372.19,-186.05L-372.19,450.49L-336.61,450.49L-336.61,1057.71L-190.66,1057.71"/><path stroke="#FF3C00" stroke-width="0.4mm" fill="none" d="M1021.48,-239.86L705.80,-239.86L705.80,-491.95L77.31,-491.95L77.31,-225.93L-363.75,-225.93L-363.75,403.66L-361.17,403.66L-361.17,1031.12L-230.36,1031.12"/><path stroke="#FF3C00" stroke-width="0.4mm" fill="none" d="M1035.96,-236.83L719.24,-236.83L719.24,-500.00L85.08,-500.00L85.08,-240.39L-366.17,-240.39L-366.17,391.19L-372.37,391.19L-372.37,1027.89L-244.79,1027.89"/><path stroke="#FF3C00" stroke-width="0.4mm" fill="none" d="M1022.93,-260.62L699.72,-260.62L699.72,-507.70L60.13,-507.70L60.13,-227.52L-382.05,-227.52L-382.05,417.15L-369.96,417.15L-369.96,1051.86L-232.09,1051.86"/><path stroke="#FF3C00" stroke-width="0.4mm" fill="none" d="M984.35,-305.40L650.97,-305.40L650.97,-512.29L8.14,-512.29L8.14,-189.26L-407.07,-189.26L-407.07,476.04L-353.49,476.04L-353.49,1097.17L-194.14,1097.17"/><path stroke="#FF3C00" stroke-width="0.4mm" fill="none" d="M927.64,-358.53L583.78,-358.53L583.78,-510.03L-57.46,-510.03L-57.46,-132.93L-432.98,-132.93L-432.98,553.73L-324.65,553.73L-324.65,1151.09L-138.18,1151.09"/><path stroke="#FF3C00" stroke-width="0.4mm" fill="none" d="M866.72,-406.72L514.72,-406.72L514.72,-501.29L-120.36,-501.29L-120.36,-72.34L-453.18,-72.34L-453.18,630.97L-290.43,630.97L-290.43,1200.12L-77.94,1200.12"/><path stroke="#FF3C00" stroke-width="0.4mm" fill="none" d="M819.29,-441.30L462.00,-441.30L462.00,-492.41L-166.83,-492.41L-166.83,-25.16L-466.40,-25.16L-466.40,689.06L-262.73,689.06L-262.73,1235.37L-31.00,1235.37"/><path stroke="#FF3C00" stroke-width="0.4mm" fill="none" d="M800.85,-459.08L439.97,-459.08L439.97,-492.03L-188.58,-492.03L-188.58,-6.84L-475.26,-6.84L-475.26,714.67L-253.53,714.67L-253.53,1253.40L-12.81,1253.40"/><path stroke="#FF3C00" stroke-width="0.4mm" fill="none" d="M818.81,-459.38L455.22,-459.38L455.22,-504.90L-182.40,-504.90L-182.40,-24.80L-481.73,-24.80L-481.73,702.04L-268.90,702.04L-268.90,1253.45L-30.77,1253.45"/><path stroke="#FF3C00" stroke-width="0.4mm" fill="none" d="M869.68,-441.84L504.88,-441.84L504.88,-528.30L-149.23,-528.30L-149.23,-75.55L-484.32,-75.55L-484.32,653.43L-305.74,653.43L-305.74,1235.20L-81.39,1235.20"/><path stroke="#FF3C00" stroke-width="0.4mm" fill="none" d="M940.22,-408.05L577.08,-408.05L577.08,-554.03L-95.16,-554.03L-95.16,-145.84L-479.78,-145.84L-479.78,579.40L-353.37,579.40L-353.37,1200.43L-151.45,1200.43"/><path stroke="#FF3C00" stroke-width="0.4mm" fill="none" d="M1012.38,-365.11L653.89,-365.11L653.89,-574.40L-32.71,-574.40L-32.71,-217.70L-467.96,-217.70L-467.96,497.79L-399.05,497.79L-399.05,1156.49L-223.00,1156.49"/><path stroke="#FF3C00" stroke-width="0.4mm" fill="none" d="M1069.80,-326.30L716.65,-326.30L716.65,-587.33L20.94,-587.33L20.94,-274.85L-454.58,-274.85L-454.58,429.61L-433.72,429.61L-433.72,1116.88L-279.88,1116.88"/><path stroke="#FF3C00" stroke-width="0.4mm" fill="none" d="M1101.95,-306.60L751.07,-306.60L751.07,-596.00L49.26,-596.00L49.26,-306.87L-448.83,-306.87L-448.83,392.85L-453.86,392.85L-453.86,1096.73L-311.75,1096.73"/><path stroke="#FF3C00" stroke-width="0.4mm" fill="none" d="M1104.18,-315.64L749.79,-315.64L749.79,-603.99L42.35,-603.99L42.35,-309.16L-457.35,-309.16L-457.35,397.59L-459.05,397.59L-459.05,1105.74L-314.11,1105.74"/><path stroke="#FF3C00" stroke-width="0.4mm" fill="none" d="M1076.23,-352.90L712.77,-352.90L712.77,-610.73L0.57,-610.73L0.57,-281.47L-479.61,-281.47L-479.61,443.63L-448.87,443.63L-448.87,1143.39L-286.67,1143.39"/></g></svg>